# xmcd
#
# Track frame offsets: 
#        150
#        24479
#        38962
#        59871
#        74597
#        88730
#        102126
#        120249
#        144093
#        172433
#        179737
#        202548
#
# Disc length: 2837 seconds
#
# Revision: 5
# Processed by: cddbd v1.5.2PL0 Copyright (c) Steve Scherf et al.
# Submitted via: ExactAudioCopyFreeDBPlugin 1.0
#
DISCID=ac0b130c
DTITLE=Аквариум - Табу [Антология 2002]
DYEAR=1982
DGENRE=Rock
TTITLE0=Сегодня ночью кто-то
TTITLE1=Пустые места
TTITLE2=Кусок жизни
TTITLE3=Береги свой хой
TTITLE4=Пепел
TTITLE5=Никто из нас не
TTITLE6=Игра наверняка
TTITLE7=Аристократ
TTITLE8=Сыновья молчаливых дней
TTITLE9=Радамаэрл
TTITLE10=Сентябрь [bonus track]
TTITLE11=В поле ягода навсегда [bonus track]
EXTD=YEAR: 1982
EXTT0=
EXTT1=
EXTT2=
EXTT3=
EXTT4=
EXTT5=
EXTT6=
EXTT7=
EXTT8=
EXTT9=
EXTT10=
EXTT11=
PLAYORDER=
